<?xml version="1.0" encoding="utf-8"?>
<!-- Generator: Adobe Illustrator 25.2.0, SVG Export Plug-In . SVG Version: 6.00 Build 0)  -->
<svg version="1.1" id="katman_1" xmlns="http://www.w3.org/2000/svg" xmlns:xlink="http://www.w3.org/1999/xlink" x="0px" y="0px"
	 viewBox="0 0 560 400" style="enable-background:new 0 0 560 400;" xml:space="preserve">
<style type="text/css">
	.st0{fill:#FFFFFF;}
	.st1{fill:#EA4335;}
	.st2{fill:#FBBC04;}
	.st3{fill:#34A853;}
	.st4{fill:#188038;}
	.st5{fill:#1967D2;}
	.st6{fill:#4285F4;}
</style>
<g>
	<path class="st0" d="M208.95,128.95h142.11v142.11H208.95L208.95,128.95z"/>
	<path class="st1" d="M351.05,335L415,271.05h-63.95V335z"/>
	<path class="st2" d="M351.05,128.95H415v142.11h-63.95V128.95z"/>
	<path class="st3" d="M208.95,271.05h142.11V335H208.95L208.95,271.05z"/>
	<g transform="matrix(3.55263 0 0 3.55263 -515.78918 -69.99994)">
		<path class="st4" d="M186,96v12c0,3.32,2.68,6,6,6h12V96H186z"/>
		<path class="st5" d="M262,56V44c0-3.31-2.68-6-6-6h-12v18H262z"/>
		<path class="st6" d="M244,38h-52c-3.32,0-6,2.69-6,6v52h18V56h40V38z"/>
		<path class="st6" d="M212.21,87.03c-1.49-1.01-2.53-2.49-3.1-4.43l3.47-1.43c0.32,1.2,0.87,2.13,1.65,2.79
			c0.78,0.66,1.73,0.99,2.84,0.99c1.13,0,2.11-0.35,2.93-1.04s1.23-1.57,1.23-2.64c0-1.09-0.43-1.98-1.29-2.67s-1.94-1.04-3.23-1.04
			h-2.01v-3.43h1.8c1.11,0,2.04-0.3,2.8-0.9s1.14-1.42,1.14-2.46c0-0.93-0.34-1.67-1.02-2.22s-1.54-0.83-2.59-0.83
			c-1.02,0-1.83,0.27-2.43,0.82c-0.6,0.55-1.05,1.24-1.31,2l-3.43-1.43c0.46-1.29,1.29-2.43,2.51-3.42s2.79-1.48,4.69-1.48
			c1.4,0,2.67,0.27,3.79,0.82s2,1.3,2.63,2.26c0.63,0.96,0.95,2.04,0.95,3.25c0,1.22-0.29,2.26-0.88,3.11s-1.32,1.5-2.18,1.96v0.21
			c1.11,0.46,2.07,1.21,2.79,2.18c0.73,0.97,1.09,2.14,1.09,3.5s-0.35,2.57-1.04,3.64s-1.65,1.9-2.85,2.51
			c-1.21,0.61-2.58,0.92-4.1,0.92C215.32,88.55,213.7,88.04,212.21,87.03L212.21,87.03z M233.52,69.81l-3.81,2.75l-1.9-2.89
			l6.84-4.93h2.62V88h-3.74V69.81z"/>
	</g>
</g>
</svg>
